<svg id="visual" viewBox="0 0 675 900" width="675" height="900" xmlns="http://www.w3.org/2000/svg" xmlns:xlink="http://www.w3.org/1999/xlink" version="1.1"><g stroke-width="1" stroke-linejoin="bevel"><path d="M354 428L370 384L302 406Z" fill="#0fff50" stroke="#0fff50"></path><path d="M302 406L291 495L354 428Z" fill="#12c45c" stroke="#12c45c"></path><path d="M269 426L291 495L302 406Z" fill="#0fff50" stroke="#0fff50"></path><path d="M482 420L453 358L370 384Z" fill="#2a9659" stroke="#2a9659"></path><path d="M482 420L370 384L354 428Z" fill="#01e757" stroke="#01e757"></path><path d="M291 495L361 519L354 428Z" fill="#12c45c" stroke="#12c45c"></path><path d="M201 399L210 429L269 426Z" fill="#2e8b57" stroke="#2e8b57"></path><path d="M269 426L210 429L291 495Z" fill="#25a25b" stroke="#25a25b"></path><path d="M201 399L269 426L302 406Z" fill="#0fff50" stroke="#0fff50"></path><path d="M201 399L302 406L264 273Z" fill="#19b85c" stroke="#19b85c"></path><path d="M264 273L302 406L370 384Z" fill="#1fad5c" stroke="#1fad5c"></path><path d="M453 358L371 265L370 384Z" fill="#05f354" stroke="#05f354"></path><path d="M371 265L264 273L370 384Z" fill="#19b85c" stroke="#19b85c"></path><path d="M471 516L482 420L354 428Z" fill="#2a9659" stroke="#2a9659"></path><path d="M180 325L187 388L201 399Z" fill="#03db5a" stroke="#03db5a"></path><path d="M201 399L179 436L210 429Z" fill="#03db5a" stroke="#03db5a"></path><path d="M187 388L179 436L201 399Z" fill="#0fff50" stroke="#0fff50"></path><path d="M210 429L202 512L291 495Z" fill="#1fad5c" stroke="#1fad5c"></path><path d="M469 281L394 241L371 265Z" fill="#2a9659" stroke="#2a9659"></path><path d="M304 213L240 248L264 273Z" fill="#0fff50" stroke="#0fff50"></path><path d="M264 273L180 325L201 399Z" fill="#05f354" stroke="#05f354"></path><path d="M187 388L62 369L179 436Z" fill="#12c45c" stroke="#12c45c"></path><path d="M548 372L469 281L453 358Z" fill="#01e757" stroke="#01e757"></path><path d="M453 358L469 281L371 265Z" fill="#12c45c" stroke="#12c45c"></path><path d="M240 248L220 264L264 273Z" fill="#03db5a" stroke="#03db5a"></path><path d="M264 273L220 264L180 325Z" fill="#0fff50" stroke="#0fff50"></path><path d="M179 436L202 512L210 429Z" fill="#19b85c" stroke="#19b85c"></path><path d="M291 495L288 595L361 519Z" fill="#05f354" stroke="#05f354"></path><path d="M304 213L264 273L371 265Z" fill="#03db5a" stroke="#03db5a"></path><path d="M361 519L471 516L354 428Z" fill="#01e757" stroke="#01e757"></path><path d="M394 241L304 213L371 265Z" fill="#05f354" stroke="#05f354"></path><path d="M202 512L288 595L291 495Z" fill="#2a9659" stroke="#2a9659"></path><path d="M361 519L464 563L471 516Z" fill="#19b85c" stroke="#19b85c"></path><path d="M471 516L537 440L482 420Z" fill="#05f354" stroke="#05f354"></path><path d="M482 420L548 372L453 358Z" fill="#2e8b57" stroke="#2e8b57"></path><path d="M179 436L157 504L202 512Z" fill="#12c45c" stroke="#12c45c"></path><path d="M202 512L195 632L288 595Z" fill="#19b85c" stroke="#19b85c"></path><path d="M54 459L157 504L179 436Z" fill="#0fff50" stroke="#0fff50"></path><path d="M371 614L464 563L361 519Z" fill="#25a25b" stroke="#25a25b"></path><path d="M471 516L549 528L537 440Z" fill="#25a25b" stroke="#25a25b"></path><path d="M537 440L548 372L482 420Z" fill="#03db5a" stroke="#03db5a"></path><path d="M288 595L371 614L361 519Z" fill="#25a25b" stroke="#25a25b"></path><path d="M532 194L445 198L469 281Z" fill="#1fad5c" stroke="#1fad5c"></path><path d="M469 281L445 198L394 241Z" fill="#1fad5c" stroke="#1fad5c"></path><path d="M394 241L413 128L304 213Z" fill="#12c45c" stroke="#12c45c"></path><path d="M548 372L551 284L469 281Z" fill="#03db5a" stroke="#03db5a"></path><path d="M221 166L171 213L240 248Z" fill="#1fad5c" stroke="#1fad5c"></path><path d="M240 248L171 213L220 264Z" fill="#1fad5c" stroke="#1fad5c"></path><path d="M220 264L111 268L180 325Z" fill="#05f354" stroke="#05f354"></path><path d="M180 325L62 369L187 388Z" fill="#03db5a" stroke="#03db5a"></path><path d="M221 166L240 248L304 213Z" fill="#2e8b57" stroke="#2e8b57"></path><path d="M497 625L549 528L464 563Z" fill="#0fff50" stroke="#0fff50"></path><path d="M464 563L549 528L471 516Z" fill="#25a25b" stroke="#25a25b"></path><path d="M537 440L602 389L548 372Z" fill="#12c45c" stroke="#12c45c"></path><path d="M548 372L592 289L551 284Z" fill="#0fff50" stroke="#0fff50"></path><path d="M213 681L314 652L288 595Z" fill="#2a9659" stroke="#2a9659"></path><path d="M288 595L314 652L371 614Z" fill="#2a9659" stroke="#2a9659"></path><path d="M371 614L497 625L464 563Z" fill="#05f354" stroke="#05f354"></path><path d="M332 116L221 166L304 213Z" fill="#0fff50" stroke="#0fff50"></path><path d="M110 194L111 268L171 213Z" fill="#05f354" stroke="#05f354"></path><path d="M171 213L111 268L220 264Z" fill="#2a9659" stroke="#2a9659"></path><path d="M102 572L155 586L157 504Z" fill="#01e757" stroke="#01e757"></path><path d="M157 504L155 586L202 512Z" fill="#12c45c" stroke="#12c45c"></path><path d="M600 449L602 389L537 440Z" fill="#03db5a" stroke="#03db5a"></path><path d="M549 528L600 449L537 440Z" fill="#25a25b" stroke="#25a25b"></path><path d="M155 586L195 632L202 512Z" fill="#01e757" stroke="#01e757"></path><path d="M111 268L62 369L180 325Z" fill="#0fff50" stroke="#0fff50"></path><path d="M602 389L592 289L548 372Z" fill="#05f354" stroke="#05f354"></path><path d="M551 284L532 194L469 281Z" fill="#25a25b" stroke="#25a25b"></path><path d="M464 700L497 625L371 614Z" fill="#0ad05b" stroke="#0ad05b"></path><path d="M549 528L628 517L600 449Z" fill="#05f354" stroke="#05f354"></path><path d="M507 150L413 128L445 198Z" fill="#0fff50" stroke="#0fff50"></path><path d="M445 198L413 128L394 241Z" fill="#0ad05b" stroke="#0ad05b"></path><path d="M413 128L332 116L304 213Z" fill="#0fff50" stroke="#0fff50"></path><path d="M601 216L532 194L551 284Z" fill="#1fad5c" stroke="#1fad5c"></path><path d="M507 150L414 118L413 128Z" fill="#0ad05b" stroke="#0ad05b"></path><path d="M413 128L414 118L332 116Z" fill="#0ad05b" stroke="#0ad05b"></path><path d="M62 369L54 459L179 436Z" fill="#0ad05b" stroke="#0ad05b"></path><path d="M36 499L102 572L157 504Z" fill="#05f354" stroke="#05f354"></path><path d="M91 637L171 682L195 632Z" fill="#01e757" stroke="#01e757"></path><path d="M341 731L358 694L314 652Z" fill="#05f354" stroke="#05f354"></path><path d="M314 652L358 694L371 614Z" fill="#2e8b57" stroke="#2e8b57"></path><path d="M619 165L507 150L532 194Z" fill="#12c45c" stroke="#12c45c"></path><path d="M532 194L507 150L445 198Z" fill="#05f354" stroke="#05f354"></path><path d="M166 124L110 194L171 213Z" fill="#05f354" stroke="#05f354"></path><path d="M0 295L0 356L62 369Z" fill="#19b85c" stroke="#19b85c"></path><path d="M166 124L171 213L221 166Z" fill="#2e8b57" stroke="#2e8b57"></path><path d="M171 682L213 681L195 632Z" fill="#0ad05b" stroke="#0ad05b"></path><path d="M195 632L213 681L288 595Z" fill="#0fff50" stroke="#0fff50"></path><path d="M587 624L628 517L549 528Z" fill="#2a9659" stroke="#2a9659"></path><path d="M600 449L675 410L602 389Z" fill="#05f354" stroke="#05f354"></path><path d="M675 297L601 216L592 289Z" fill="#2e8b57" stroke="#2e8b57"></path><path d="M0 481L36 499L54 459Z" fill="#1fad5c" stroke="#1fad5c"></path><path d="M54 459L36 499L157 504Z" fill="#03db5a" stroke="#03db5a"></path><path d="M592 289L601 216L551 284Z" fill="#0fff50" stroke="#0fff50"></path><path d="M675 345L592 289L602 389Z" fill="#25a25b" stroke="#25a25b"></path><path d="M248 75L166 124L221 166Z" fill="#19b85c" stroke="#19b85c"></path><path d="M166 124L103 173L110 194Z" fill="#05f354" stroke="#05f354"></path><path d="M0 295L62 369L111 268Z" fill="#0fff50" stroke="#0fff50"></path><path d="M213 681L251 710L314 652Z" fill="#19b85c" stroke="#19b85c"></path><path d="M392 72L280 76L332 116Z" fill="#19b85c" stroke="#19b85c"></path><path d="M332 116L280 76L221 166Z" fill="#0ad05b" stroke="#0ad05b"></path><path d="M471 723L464 700L358 694Z" fill="#03db5a" stroke="#03db5a"></path><path d="M358 694L464 700L371 614Z" fill="#12c45c" stroke="#12c45c"></path><path d="M497 625L587 624L549 528Z" fill="#01e757" stroke="#01e757"></path><path d="M464 700L494 686L497 625Z" fill="#0ad05b" stroke="#0ad05b"></path><path d="M450 42L392 72L414 118Z" fill="#25a25b" stroke="#25a25b"></path><path d="M414 118L392 72L332 116Z" fill="#03db5a" stroke="#03db5a"></path><path d="M91 637L155 586L102 572Z" fill="#2e8b57" stroke="#2e8b57"></path><path d="M91 637L195 632L155 586Z" fill="#2e8b57" stroke="#2e8b57"></path><path d="M213 681L189 722L251 710Z" fill="#25a25b" stroke="#25a25b"></path><path d="M179 58L248 75L234 0Z" fill="#12c45c" stroke="#12c45c"></path><path d="M280 76L248 75L221 166Z" fill="#19b85c" stroke="#19b85c"></path><path d="M251 710L341 731L314 652Z" fill="#0ad05b" stroke="#0ad05b"></path><path d="M570 676L587 624L497 625Z" fill="#01e757" stroke="#01e757"></path><path d="M675 507L600 449L628 517Z" fill="#0ad05b" stroke="#0ad05b"></path><path d="M675 507L675 410L600 449Z" fill="#0fff50" stroke="#0fff50"></path><path d="M0 295L111 268L0 257Z" fill="#01e757" stroke="#01e757"></path><path d="M62 369L0 356L54 459Z" fill="#19b85c" stroke="#19b85c"></path><path d="M675 410L675 345L602 389Z" fill="#25a25b" stroke="#25a25b"></path><path d="M0 624L91 637L102 572Z" fill="#0ad05b" stroke="#0ad05b"></path><path d="M0 356L0 481L54 459Z" fill="#05f354" stroke="#05f354"></path><path d="M36 499L0 624L102 572Z" fill="#0fff50" stroke="#0fff50"></path><path d="M0 481L0 496L36 499Z" fill="#12c45c" stroke="#12c45c"></path><path d="M0 257L111 268L110 194Z" fill="#03db5a" stroke="#03db5a"></path><path d="M675 345L675 297L592 289Z" fill="#0fff50" stroke="#0fff50"></path><path d="M341 731L471 723L358 694Z" fill="#03db5a" stroke="#03db5a"></path><path d="M464 700L471 723L494 686Z" fill="#0ad05b" stroke="#0ad05b"></path><path d="M494 686L570 676L497 625Z" fill="#2e8b57" stroke="#2e8b57"></path><path d="M675 575L675 507L628 517Z" fill="#2a9659" stroke="#2a9659"></path><path d="M171 682L189 722L213 681Z" fill="#2a9659" stroke="#2a9659"></path><path d="M251 710L322 773L341 731Z" fill="#1fad5c" stroke="#1fad5c"></path><path d="M92 735L189 722L171 682Z" fill="#2e8b57" stroke="#2e8b57"></path><path d="M492 738L570 676L494 686Z" fill="#25a25b" stroke="#25a25b"></path><path d="M587 624L675 575L628 517Z" fill="#1fad5c" stroke="#1fad5c"></path><path d="M0 187L0 257L110 194Z" fill="#25a25b" stroke="#25a25b"></path><path d="M601 216L619 165L532 194Z" fill="#12c45c" stroke="#12c45c"></path><path d="M507 150L450 42L414 118Z" fill="#2a9659" stroke="#2a9659"></path><path d="M675 204L619 165L601 216Z" fill="#19b85c" stroke="#19b85c"></path><path d="M555 71L450 42L507 150Z" fill="#0ad05b" stroke="#0ad05b"></path><path d="M392 72L308 0L280 76Z" fill="#2e8b57" stroke="#2e8b57"></path><path d="M234 0L248 75L280 76Z" fill="#2e8b57" stroke="#2e8b57"></path><path d="M248 75L179 58L166 124Z" fill="#1fad5c" stroke="#1fad5c"></path><path d="M166 124L79 100L103 173Z" fill="#25a25b" stroke="#25a25b"></path><path d="M103 173L0 187L110 194Z" fill="#01e757" stroke="#01e757"></path><path d="M458 850L492 738L471 723Z" fill="#12c45c" stroke="#12c45c"></path><path d="M471 723L492 738L494 686Z" fill="#1fad5c" stroke="#1fad5c"></path><path d="M186 856L322 773L251 710Z" fill="#01e757" stroke="#01e757"></path><path d="M341 731L346 817L471 723Z" fill="#19b85c" stroke="#19b85c"></path><path d="M675 714L675 575L587 624Z" fill="#05f354" stroke="#05f354"></path><path d="M675 297L675 204L601 216Z" fill="#05f354" stroke="#05f354"></path><path d="M619 165L555 71L507 150Z" fill="#25a25b" stroke="#25a25b"></path><path d="M604 66L555 71L619 165Z" fill="#2a9659" stroke="#2a9659"></path><path d="M179 58L79 100L166 124Z" fill="#01e757" stroke="#01e757"></path><path d="M79 100L0 187L103 173Z" fill="#0fff50" stroke="#0fff50"></path><path d="M675 204L675 188L619 165Z" fill="#1fad5c" stroke="#1fad5c"></path><path d="M395 0L308 0L392 72Z" fill="#1fad5c" stroke="#1fad5c"></path><path d="M179 58L100 0L79 100Z" fill="#03db5a" stroke="#03db5a"></path><path d="M395 0L392 72L450 42Z" fill="#19b85c" stroke="#19b85c"></path><path d="M186 856L333 796L322 773Z" fill="#0ad05b" stroke="#0ad05b"></path><path d="M322 773L333 796L341 731Z" fill="#03db5a" stroke="#03db5a"></path><path d="M468 0L395 0L450 42Z" fill="#19b85c" stroke="#19b85c"></path><path d="M0 496L0 624L36 499Z" fill="#12c45c" stroke="#12c45c"></path><path d="M91 637L92 735L171 682Z" fill="#0ad05b" stroke="#0ad05b"></path><path d="M308 0L234 0L280 76Z" fill="#2e8b57" stroke="#2e8b57"></path><path d="M0 689L92 735L91 637Z" fill="#01e757" stroke="#01e757"></path><path d="M330 900L346 817L333 796Z" fill="#25a25b" stroke="#25a25b"></path><path d="M524 0L468 0L450 42Z" fill="#25a25b" stroke="#25a25b"></path><path d="M186 856L251 710L189 722Z" fill="#0fff50" stroke="#0fff50"></path><path d="M333 796L346 817L341 731Z" fill="#19b85c" stroke="#19b85c"></path><path d="M675 49L604 66L619 165Z" fill="#1fad5c" stroke="#1fad5c"></path><path d="M555 71L524 0L450 42Z" fill="#19b85c" stroke="#19b85c"></path><path d="M591 0L524 0L555 71Z" fill="#19b85c" stroke="#19b85c"></path><path d="M234 0L149 0L179 58Z" fill="#25a25b" stroke="#25a25b"></path><path d="M79 100L0 112L0 187Z" fill="#2e8b57" stroke="#2e8b57"></path><path d="M0 0L0 112L79 100Z" fill="#12c45c" stroke="#12c45c"></path><path d="M0 624L0 689L91 637Z" fill="#01e757" stroke="#01e757"></path><path d="M492 738L606 758L570 676Z" fill="#2a9659" stroke="#2a9659"></path><path d="M570 676L675 714L587 624Z" fill="#12c45c" stroke="#12c45c"></path><path d="M536 845L606 758L492 738Z" fill="#12c45c" stroke="#12c45c"></path><path d="M149 0L100 0L179 58Z" fill="#01e757" stroke="#01e757"></path><path d="M606 758L675 714L570 676Z" fill="#0ad05b" stroke="#0ad05b"></path><path d="M0 780L97 799L92 735Z" fill="#01e757" stroke="#01e757"></path><path d="M92 735L97 799L189 722Z" fill="#2a9659" stroke="#2a9659"></path><path d="M388 900L458 850L346 817Z" fill="#01e757" stroke="#01e757"></path><path d="M346 817L458 850L471 723Z" fill="#19b85c" stroke="#19b85c"></path><path d="M675 49L591 0L604 66Z" fill="#0ad05b" stroke="#0ad05b"></path><path d="M604 66L591 0L555 71Z" fill="#12c45c" stroke="#12c45c"></path><path d="M59 900L120 828L97 799Z" fill="#01e757" stroke="#01e757"></path><path d="M97 799L120 828L189 722Z" fill="#2e8b57" stroke="#2e8b57"></path><path d="M120 828L186 856L189 722Z" fill="#0fff50" stroke="#0fff50"></path><path d="M675 188L675 49L619 165Z" fill="#05f354" stroke="#05f354"></path><path d="M615 802L675 745L606 758Z" fill="#25a25b" stroke="#25a25b"></path><path d="M606 758L675 745L675 714Z" fill="#03db5a" stroke="#03db5a"></path><path d="M458 850L536 845L492 738Z" fill="#19b85c" stroke="#19b85c"></path><path d="M536 845L615 802L606 758Z" fill="#2a9659" stroke="#2a9659"></path><path d="M207 900L330 900L333 796Z" fill="#2a9659" stroke="#2a9659"></path><path d="M458 850L499 900L536 845Z" fill="#05f354" stroke="#05f354"></path><path d="M330 900L388 900L346 817Z" fill="#1fad5c" stroke="#1fad5c"></path><path d="M0 689L0 780L92 735Z" fill="#1fad5c" stroke="#1fad5c"></path><path d="M175 900L207 900L186 856Z" fill="#2e8b57" stroke="#2e8b57"></path><path d="M388 900L420 900L458 850Z" fill="#01e757" stroke="#01e757"></path><path d="M186 856L207 900L333 796Z" fill="#25a25b" stroke="#25a25b"></path><path d="M175 900L186 856L120 828Z" fill="#2a9659" stroke="#2a9659"></path><path d="M100 0L0 0L79 100Z" fill="#2a9659" stroke="#2a9659"></path><path d="M0 780L0 795L97 799Z" fill="#19b85c" stroke="#19b85c"></path><path d="M675 49L675 0L591 0Z" fill="#0fff50" stroke="#0fff50"></path><path d="M59 900L175 900L120 828Z" fill="#0fff50" stroke="#0fff50"></path><path d="M420 900L499 900L458 850Z" fill="#01e757" stroke="#01e757"></path><path d="M589 900L675 825L615 802Z" fill="#2a9659" stroke="#2a9659"></path><path d="M589 900L615 802L536 845Z" fill="#2a9659" stroke="#2a9659"></path><path d="M615 802L675 825L675 745Z" fill="#2a9659" stroke="#2a9659"></path><path d="M499 900L589 900L536 845Z" fill="#2a9659" stroke="#2a9659"></path><path d="M0 795L59 900L97 799Z" fill="#2e8b57" stroke="#2e8b57"></path><path d="M0 795L0 900L59 900Z" fill="#01e757" stroke="#01e757"></path><path d="M589 900L675 900L675 825Z" fill="#12c45c" stroke="#12c45c"></path></g></svg>